<?xml version="1.0" encoding="utf-8"?>
<!-- Generator: Adobe Illustrator 21.1.0, SVG Export Plug-In . SVG Version: 6.00 Build 0)  -->
<svg version="1.1" id="Layer_1" xmlns="http://www.w3.org/2000/svg" xmlns:xlink="http://www.w3.org/1999/xlink" x="0px" y="0px"
	 viewBox="0 0 127.8 109.2" style="enable-background:new 0 0 127.8 109.2;" xml:space="preserve">
<style type="text/css">
	.st0{fill-rule:evenodd;clip-rule:evenodd;fill:#f9d9a3;}
	.st1{fill:#f9d9a3;}
</style>
<g>
	<path class="st0" d="M49.2,1.5c10,7.6,8.4,6.3,14.6,11.1c5.8-4.4,5.1-3.8,14.7-11.1C63.4,1.5,64.8,1.5,49.2,1.5L49.2,1.5z M81,1.5
		h0.8l16.1,46.3l-0.7,0.5L81.6,3.3c0-0.1-0.1-0.2-0.2-0.3c-0.2-0.3-0.7-0.4-1-0.1L63.9,15.3L47.4,2.9c-0.4-0.3-1-0.2-1.2,0.3
		l-15.7,45l-0.7-0.5L46,1.5h0.9L63.4,14c0.3,0.2,0.6,0.2,0.9,0L81,1.5L81,1.5z M97.3,49.9c0,0-0.1,0.1-0.1,0.1L64.2,73
		c-0.3,0.1-0.5,0.1-0.8-0.1L28.6,48.6l0,0c-0.3-0.2-0.4-0.5-0.3-0.8L44.8,0.5C44.9,0.2,45.1,0,45.5,0h36.8c0.3,0,0.6,0.2,0.7,0.5
		l16.4,47.3c0.1,0.3,0,0.7-0.3,0.8l0,0L97.3,49.9L97.3,49.9z M96,49.1l-6.8-19.6L71.3,48.9c-0.3,0.3-0.7,0.3-1,0.1l-1.5-1.1
		l-1.5,3.3l3.9,14.9L70.3,67L96,49.1L96,49.1z M67.8,34.7c0.8,1.2,1.4,2.7,1.7,4.1l10.2-7.1c-1.3-2.8-4.6-4.9-7.5-5.8l1.1,3.9
		c0.1,0.3,0,0.6-0.3,0.8l0,0L67.8,34.7L67.8,34.7z M68.2,39.6c-0.2-1.4-0.7-2.9-1.5-4.1l-2.4,1.8c-0.3,0.2-0.6,0.2-0.9,0L61,35.5
		c-0.8,1.2-1.3,2.7-1.5,4.1l4.5,3.1L68.2,39.6L68.2,39.6z M69,19.9L67.5,19H69c0,0,0-0.1,0.1-0.1l2.7-2.9l-5.1,2.4l1.2,7.7h1.3
		c-1.5,1-3.1,2-4.6,2.9v2l3.8,1.3l3.4-2.6L69,19.9L69,19.9z M73,24.7c3.1,1,6.4,3.3,7.9,6.2l7-4.9l-1.3-3.7c-0.9-1-2.2-1.5-3.5-1.8
		c-2-0.4-4-0.2-4.9,0L73,24.7L73,24.7z M78.2,19L76,12.3c1.7-1.1,4.7-1.5,6.7-1.3l3.1,8.9c-0.8-0.4-1.6-0.7-2.4-0.8
		C81.4,18.6,79.3,18.8,78.2,19L78.2,19z M74.5,12.4l0.2,0.7c0,0-0.1,0-0.1,0L66.4,17l-0.2-1.5l7.5-5.6l0.8,2.4
		C74.5,12.2,74.5,12.3,74.5,12.4L74.5,12.4z M75.6,10.9l-0.7-2.1l5.6-4.2l1.7,4.9C80.1,9.5,77.4,9.9,75.6,10.9L75.6,10.9z
		 M58.7,26.2l-0.1-0.1h1.3l1.2-7.7L56,16l2.7,2.9c0,0,0.1,0.1,0.1,0.1h1.5l-1.5,1l-2.8,9.8l3.3,2.6l3.9-1.3v-2
		C61.7,28.1,60.2,27.2,58.7,26.2L58.7,26.2z M61.7,50.3h4.4l1.5-3.3l-3.7-2.6l-3.7,2.6L61.7,50.3L61.7,50.3z M65.9,51.8h-4.1
		l-3.6,13.9l5.7,5.6l5.7-5.6L65.9,51.8L65.9,51.8z M61.3,26.1h5.1l-1.5-9.7l-0.6,0.4c-0.3,0.2-0.6,0.2-0.9,0l-0.6-0.4L62.6,18
		c0,0.1,0,0.2,0,0.2L61.3,26.1L61.3,26.1z M68.9,46.2l1.8,1.3L88.6,28l-0.2-0.6L65.1,43.5L68.9,46.2L68.9,46.2z M67.1,33.4l-3.2-1.1
		l-3.2,1.1l3.2,2.5L67.1,33.4L67.1,33.4z M75.2,14.5l-4.8,5.1l1.2,4.3l5.3-4.3L75.2,14.5L75.2,14.5z M31.8,49.1L57.5,67l-0.9-0.9
		l3.9-14.9L59,47.9L57.4,49c-0.3,0.2-0.7,0.2-1-0.1L38.6,29.5L31.8,49.1L31.8,49.1z M58.8,46.2l3.8-2.7l-15.8-11
		c-0.1,0-0.2-0.1-0.3-0.2l-7.1-4.9L39.2,28l17.9,19.5L58.8,46.2L58.8,46.2z M58.1,38.7c0.3-1.4,0.9-2.9,1.7-4.1l-4.1-3.2
		c-0.3-0.3-0.7-0.5-1.1-0.9c-0.2-0.2-0.3-0.5-0.2-0.7l1.1-3.9c-2.9,0.8-6.2,3-7.6,5.7L58.1,38.7L58.1,38.7z M46.7,30.8
		c1.6-2.9,4.9-5.1,7.9-6.1c-5.1-4.2-5-4.1-5.2-4.2c-0.8-0.2-2.2-0.3-3.8-0.1c-1.7,0.2-3.4,0.8-4.6,2c0,0-0.1,0.1-0.1,0.1L39.8,26
		L46.7,30.8L46.7,30.8z M49.6,19c-2.4-0.4-5.4-0.2-7.6,1l3.1-9c2-0.1,4.9,0.3,6.7,1.4L49.6,19L49.6,19z M52.2,10.9
		c-1.9-1-4.5-1.5-6.6-1.4l1.7-4.9l5.6,4.2L52.2,10.9L52.2,10.9z M56.1,23.9l1.2-4.3l-4.8-5.1l-1.7,5.2L56.1,23.9L56.1,23.9z M53,13
		l1.1-3.3l7.5,5.6L61.3,17l-8.2-3.9C53.1,13.1,53,13.1,53,13z"/>
	<g>
		<path class="st1" d="M9.2,108.9H6.5L2.4,89.1v19.8H0V84.1h3.9L8,103.9l3.9-19.8h3.9v24.8h-2.6V89L9.2,108.9z"/>
		<path class="st1" d="M31,95.1v2.5h-6.1v8.8h7.5v2.5H22.1V84.1h10.2v2.5h-7.5v8.5H31z"/>
		<path class="st1" d="M60.2,98.2l-1.5,2.4v8.3H56V84.1h2.8v12l6.6-12h2.8l-6.3,11.3l6.5,13.5h-2.8L60.2,98.2z"/>
		<path class="st1" d="M74.1,108.9V84.1h2.8v22.3h7.1v2.5H74.1z"/>
		<path class="st1" d="M92.3,84.1v24.8h-2.8V84.1H92.3z"/>
		<path class="st1" d="M98.5,90.1c0-3.8,1.9-6.2,5.7-6.2c3.8,0,5.7,2.4,5.7,6.2v12.8c0,3.8-1.9,6.2-5.7,6.2c-3.8,0-5.7-2.5-5.7-6.2
			V90.1z M101.2,103.1c0,2.3,1,3.6,2.9,3.6c2,0,2.9-1.3,2.9-3.6V90c0-2.2-0.9-3.6-2.9-3.6c-2,0-2.9,1.3-2.9,3.6V103.1z"/>
		<path class="st1" d="M118.5,108.9H116V84.1h3.5l5.7,18v-18h2.4v24.8h-2.9l-6.4-20.1V108.9z"/>
		<path class="st1" d="M47,108.9l-3.3-10h-2.3v10h-2.9V84.1h5.4c3.5,0,6,2.8,6,7.3c0,4.4-2,6.3-3.5,6.9l3.8,10.7H47z M46.8,91.5
			c0-2.9-1.1-4.9-3.4-4.9h-2.1v9.8h2.1C45.7,96.4,46.8,94.4,46.8,91.5z"/>
	</g>
</g>
</svg>
