<?xml version="1.0" encoding="utf-8"?>
<!-- Generator: Adobe Illustrator 21.1.0, SVG Export Plug-In . SVG Version: 6.00 Build 0)  -->
<svg version="1.1" id="Layer_1" xmlns="http://www.w3.org/2000/svg" xmlns:xlink="http://www.w3.org/1999/xlink" x="0px" y="0px"
	 viewBox="0 0 227.2 73" style="enable-background:new 0 0 227.2 73;" xml:space="preserve">
<style type="text/css">
	.st0{fill-rule:evenodd;clip-rule:evenodd;fill:#f9d9a3;}
	.st1{fill:#f9d9a3;}
</style>
<g>
	<path class="st0" d="M21,1.5C31,9,29.3,7.8,35.6,12.5c5.8-4.4,5.1-3.8,14.7-11.1C35.2,1.5,36.5,1.5,21,1.5L21,1.5z M52.7,1.5h0.8
		l16.1,46.3l-0.7,0.5L53.3,3.3c0-0.1-0.1-0.2-0.2-0.3c-0.2-0.3-0.7-0.4-1-0.1L35.6,15.3L19.1,2.9c-0.4-0.3-1-0.2-1.2,0.3l-15.7,45
		l-0.7-0.5L17.7,1.5h0.9L35.1,14c0.3,0.2,0.6,0.2,0.9,0L52.7,1.5L52.7,1.5z M69,49.9c0,0-0.1,0.1-0.1,0.1L35.9,73
		c-0.3,0.1-0.5,0.1-0.8-0.1L0.3,48.6l0,0c-0.3-0.2-0.4-0.5-0.3-0.8L16.5,0.5C16.6,0.2,16.9,0,17.2,0H54c0.3,0,0.6,0.2,0.7,0.5
		l16.4,47.3c0.1,0.3,0,0.7-0.3,0.8l0,0L69,49.9L69,49.9z M67.7,49.1l-6.8-19.6L43,48.9c-0.3,0.3-0.7,0.3-1,0.1l-1.5-1.1L39,51.2
		l3.9,14.9L42,67L67.7,49.1L67.7,49.1z M39.6,34.7c0.8,1.2,1.4,2.7,1.7,4.1l10.2-7.1c-1.3-2.8-4.6-4.9-7.5-5.8l1.1,3.9
		c0.1,0.3,0,0.6-0.3,0.8l0,0L39.6,34.7L39.6,34.7z M39.9,39.6c-0.2-1.4-0.7-2.9-1.5-4.1l-2.4,1.8c-0.3,0.2-0.6,0.2-0.9,0l-2.5-1.9
		c-0.8,1.2-1.3,2.7-1.5,4.1l4.5,3.1L39.9,39.6L39.9,39.6z M40.7,19.9L39.2,19h1.5c0,0,0-0.1,0.1-0.1l2.7-2.9l-5.1,2.4l1.2,7.7h1.3
		c-1.5,1-3.1,2-4.6,2.9v2l3.8,1.3l3.4-2.6L40.7,19.9L40.7,19.9z M44.7,24.7c3.1,1,6.4,3.3,7.9,6.2l7-4.9l-1.3-3.7
		c-0.9-1-2.2-1.5-3.5-1.8c-2-0.4-4-0.2-4.9,0L44.7,24.7L44.7,24.7z M49.9,19l-2.2-6.7c1.7-1.1,4.7-1.5,6.7-1.3l3.1,8.9
		c-0.8-0.4-1.6-0.7-2.4-0.8C53.1,18.6,51.1,18.8,49.9,19L49.9,19z M46.2,12.4l0.2,0.7c0,0-0.1,0-0.1,0L38.1,17l-0.2-1.5l7.5-5.6
		l0.8,2.4C46.2,12.2,46.2,12.3,46.2,12.4L46.2,12.4z M47.3,10.9l-0.7-2.1l5.6-4.2l1.7,4.9C51.8,9.5,49.2,9.9,47.3,10.9L47.3,10.9z
		 M30.5,26.2l-0.1-0.1h1.3l1.2-7.7L27.7,16l2.7,2.9c0,0,0.1,0.1,0.1,0.1H32l-1.5,1l-2.8,9.8l3.3,2.6l3.9-1.3v-2
		C33.4,28.1,31.9,27.2,30.5,26.2L30.5,26.2z M33.4,50.3h4.4l1.5-3.3l-3.7-2.6l-3.7,2.6L33.4,50.3L33.4,50.3z M37.6,51.8h-4.1
		l-3.6,13.9l5.7,5.6l5.7-5.6L37.6,51.8L37.6,51.8z M33.1,26.1h5.1l-1.5-9.7L36,16.8c-0.3,0.2-0.6,0.2-0.9,0l-0.6-0.4L34.3,18
		c0,0.1,0,0.2,0,0.2L33.1,26.1L33.1,26.1z M40.6,46.2l1.8,1.3L60.3,28l-0.2-0.6L36.9,43.5L40.6,46.2L40.6,46.2z M38.8,33.4l-3.2-1.1
		l-3.2,1.1l3.2,2.5L38.8,33.4L38.8,33.4z M46.9,14.5l-4.8,5.1l1.2,4.3l5.3-4.3L46.9,14.5L46.9,14.5z M3.5,49.1L29.2,67l-0.9-0.9
		l3.9-14.9l-1.5-3.3L29.1,49c-0.3,0.2-0.7,0.2-1-0.1L10.3,29.5L3.5,49.1L3.5,49.1z M30.5,46.2l3.8-2.7l-15.8-11
		c-0.1,0-0.2-0.1-0.3-0.2l-7.1-4.9L10.9,28l17.9,19.5L30.5,46.2L30.5,46.2z M29.8,38.7c0.3-1.4,0.9-2.9,1.7-4.1l-4.1-3.2
		c-0.3-0.3-0.7-0.5-1.1-0.9c-0.2-0.2-0.3-0.5-0.2-0.7l1.1-3.9c-2.9,0.8-6.2,3-7.6,5.7L29.8,38.7L29.8,38.7z M18.5,30.8
		c1.6-2.9,4.9-5.1,7.9-6.1c-5.1-4.2-5-4.1-5.2-4.2c-0.8-0.2-2.2-0.3-3.8-0.1c-1.7,0.2-3.4,0.8-4.6,2c0,0-0.1,0.1-0.1,0.1L11.6,26
		L18.5,30.8L18.5,30.8z M21.3,19c-2.4-0.4-5.4-0.2-7.6,1l3.1-9c2-0.1,4.9,0.3,6.7,1.4L21.3,19L21.3,19z M23.9,10.9
		c-1.9-1-4.5-1.5-6.6-1.4L19,4.6l5.6,4.2L23.9,10.9L23.9,10.9z M27.8,23.9l1.2-4.3l-4.8-5.1l-1.7,5.2L27.8,23.9L27.8,23.9z M24.7,13
		l1.1-3.3l7.5,5.6L33,17l-8.2-3.9C24.8,13.1,24.8,13.1,24.7,13z"/>
	<g>
		<path class="st1" d="M97.4,42.4h-2.9L90,20.7v21.7h-2.6V15.2h4.2L96,36.9l4.3-21.7h4.2v27.2h-2.9V20.5L97.4,42.4z"/>
		<path class="st1" d="M121.3,27.2V30h-6.6v9.7h8.2v2.8h-11.2V15.2h11.2v2.8h-8.2v9.3H121.3z"/>
		<path class="st1" d="M153.3,30.6l-1.6,2.7v9.1h-3V15.2h3v13.1l7.2-13.1h3.1l-6.9,12.4l7.1,14.8h-3.1L153.3,30.6z"/>
		<path class="st1" d="M168.4,42.4V15.2h3v24.4h7.8v2.8H168.4z"/>
		<path class="st1" d="M188.4,15.2v27.2h-3V15.2H188.4z"/>
		<path class="st1" d="M195.2,21.8c0-4.2,2.1-6.8,6.2-6.8c4.2,0,6.3,2.7,6.3,6.8v14.1c0,4.1-2.1,6.8-6.3,6.8c-4.2,0-6.2-2.7-6.2-6.8
			V21.8z M198.2,36c0,2.5,1,3.9,3.2,3.9c2.2,0,3.2-1.4,3.2-3.9V21.6c0-2.4-1-3.9-3.2-3.9c-2.2,0-3.2,1.5-3.2,3.9V36z"/>
		<path class="st1" d="M217.1,42.4h-2.7V15.2h3.8l6.3,19.7V15.2h2.7v27.2h-3.1l-7-22V42.4z"/>
		<path class="st1" d="M138.7,42.4l-3.7-11h-2.5v11h-3.1V15.2h5.9c3.8,0,6.5,3.1,6.5,8c0,4.8-2.1,6.9-3.9,7.5l4.1,11.7H138.7z
			 M138.6,23.3c0-3.1-1.2-5.4-3.7-5.4h-2.3v10.8h2.3C137.4,28.7,138.6,26.4,138.6,23.3z"/>
	</g>
</g>
</svg>
