<svg id="_1" data-name="1" xmlns="http://www.w3.org/2000/svg" viewBox="0 0 58 42.53"><defs><style>.cls-1{fill:#308ee3;}</style></defs><title>Vector Smart Object1</title><path class="cls-1" d="M57.42,9.17s-.57-4.17-2.3-6A8.12,8.12,0,0,0,49.31.61C41.19,0,29,0,29,0h0S16.81,0,8.7.61A8.11,8.11,0,0,0,2.88,3.17c-1.73,1.83-2.3,6-2.3,6A95,95,0,0,0,0,19v4.59a95,95,0,0,0,.58,9.79s.57,4.17,2.3,6c2.21,2.41,5.11,2.33,6.4,2.58,4.64.46,19.72.61,19.72.61s12.19,0,20.31-.63a8.11,8.11,0,0,0,5.81-2.56c1.74-1.83,2.3-6,2.3-6A94.8,94.8,0,0,0,58,23.55V19A94.83,94.83,0,0,0,57.42,9.17ZM23,29.11v-17L30.07,16l8.6,4.68Z"/></svg>