<svg id="_1" data-name="1" xmlns="http://www.w3.org/2000/svg" viewBox="0 0 58 46.87"><defs><style>.cls-1{fill:#308ee3;}</style></defs><title>Vector Smart Object1</title><path class="cls-1" d="M58,45c0,1.57-1.44,2.17-3.21,1.31L41.56,40,57.88,8.82,38.67,38.65l-16.76-8h0l-.49-4.46h0C20.57,18.45,19.5,9,19.33,8.77V29.42h0V45h0c0,1.57-1.2,2.28-2.68,1.58L1.61,39.41A3,3,0,0,1,0,36.93V1.72C0,.46,1-.11,2.14.45l.5.24h0L19.26,8.62a.29.29,0,0,1,.11.1L26,19h0l12.64,19.6c0-.59-10.86-22.37-10.86-22.37L37.72.89A2.07,2.07,0,0,1,40.27.18L57.79,8.54a.21.21,0,0,1,.11.14.37.37,0,0,1,.1.24Z"/></svg>