<svg width="20" height="26" viewBox="0 0 20 26" version="1.1" xmlns="http://www.w3.org/2000/svg" xmlns:xlink="http://www.w3.org/1999/xlink">
<title>Vector 3</title>
<desc>Created using Figma</desc>
<g id="Canvas" transform="translate(-3613 -823)">
<g id="Vector 3">
<use xlink:href="#path0_stroke" transform="translate(3613.5 823.5)"/>
</g>
</g>
<defs>
<path id="path0_stroke" d="M 0 2.27374e-13L -9.4739e-15 -0.5L -0.5 -0.5L -0.5 2.27374e-13L 0 2.27374e-13ZM 0 25L -0.5 25L -0.5 25.5L 0 25.5L 0 25ZM 19 25L 19 25.5L 19.5 25.5L 19.5 25L 19 25ZM 19 7L 19.5 7L 19.5 6.79289L 19.3536 6.64645L 19 7ZM 12 0L 12.3536 -0.353553L 12.2071 -0.5L 12 -0.5L 12 0ZM 13 6L 12.5 6L 12.5 6.5L 13 6.5L 13 6ZM -0.5 2.27374e-13L -0.5 25L 0.5 25L 0.5 2.27374e-13L -0.5 2.27374e-13ZM 0 25.5L 19 25.5L 19 24.5L 0 24.5L 0 25.5ZM 19.5 25L 19.5 7L 18.5 7L 18.5 25L 19.5 25ZM 12 -0.5L -9.4739e-15 -0.5L 9.4739e-15 0.5L 12 0.5L 12 -0.5ZM 13.3536 0.646447L 12.3536 -0.353553L 11.6464 0.353553L 12.6464 1.35355L 13.3536 0.646447ZM 12.5 1L 12.5 6L 13.5 6L 13.5 1L 12.5 1ZM 19.3536 6.64645L 18.3536 5.64645L 17.6464 6.35355L 18.6464 7.35355L 19.3536 6.64645ZM 18.3536 5.64645L 13.3536 0.646447L 12.6464 1.35355L 17.6464 6.35355L 18.3536 5.64645ZM 13 6.5L 18 6.5L 18 5.5L 13 5.5L 13 6.5ZM 3.5 7.5L 8.5 7.5L 8.5 6.5L 3.5 6.5L 3.5 7.5ZM 3.5 11.5L 15.5 11.5L 15.5 10.5L 3.5 10.5L 3.5 11.5ZM 3.5 15.5L 15.5 15.5L 15.5 14.5L 3.5 14.5L 3.5 15.5ZM 3.5 19.5L 15.5 19.5L 15.5 18.5L 3.5 18.5L 3.5 19.5Z"/>
</defs>
</svg>
