<svg id="Layer_1" data-name="Layer 1" xmlns="http://www.w3.org/2000/svg" viewBox="0 0 127.87 109.19"><defs><style>.cls-1,.cls-2{fill:#f9d9a3;}.cls-1{fill-rule:evenodd;}</style></defs><title>logo</title><path class="cls-1" d="M49.3,1.45,63.94,12.53,78.62,1.45ZM81,1.45h.79L97.94,47.76l-.69.48L81.62,3.34A.72.72,0,0,0,81.43,3a.73.73,0,0,0-1-.15L63.93,15.35,47.46,2.9a.76.76,0,0,0-1.17.33l-15.66,45-.69-.48L46,1.45h.86L63.48,14a.73.73,0,0,0,.9,0L81,1.45ZM97.35,49.93l-.13.09L64.27,73a.73.73,0,0,1-.76-.06L28.65,48.64h0a.72.72,0,0,1-.27-.83L44.83.54a.73.73,0,0,1,.7-.54H82.34a.73.73,0,0,1,.7.54L99.49,47.8a.72.72,0,0,1-.27.83h0l-1.86,1.3ZM96,49.1,89.2,29.53,71.36,48.93a.73.73,0,0,1-1,.08l-1.55-1.1-1.53,3.28,3.91,14.9-.88.88L96,49.1ZM67.9,34.67a11.74,11.74,0,0,1,1.67,4.08l10.19-7.07c-1.35-2.76-4.61-4.9-7.49-5.75l1.12,3.9a.72.72,0,0,1-.25.77h0L67.9,34.67Zm.37,5a10.75,10.75,0,0,0-1.51-4.09L64.39,37.4a.72.72,0,0,1-.92,0L61,35.48a10.63,10.63,0,0,0-1.55,4.07l4.47,3.1,4.34-3ZM69,19.95,67.55,19H69l.07-.09L71.84,16l-5.12,2.42,1.2,7.66h1.31c-1.51,1-3.05,2-4.57,2.94v2l3.83,1.33,3.38-2.63L69,19.95Zm4,4.71c3.08,1,6.36,3.25,7.88,6.18L88,26,86.69,22.3a6.7,6.7,0,0,0-3.5-1.82,12.73,12.73,0,0,0-4.91,0l-5.19,4.2ZM78.25,19l-2.17-6.65A12.39,12.39,0,0,1,82.75,11l3.1,8.9a9.44,9.44,0,0,0-2.36-.83A14.46,14.46,0,0,0,78.25,19Zm-3.67-6.6.22.67-.09,0L66.49,17l-.24-1.55,7.47-5.65.78,2.4a.71.71,0,0,0,.07.21Zm1-1.46-.68-2.08,5.59-4.22,1.7,4.89a13.85,13.85,0,0,0-6.62,1.41ZM58.8,26.23l-.13-.08h1.27l1.19-7.69L56,16l2.72,2.88.07.09h1.52l-1.52,1L56,29.75l3.35,2.6L63.21,31v-2c-1.46-1-2.95-1.87-4.41-2.83Zm3,24.1h4.36l1.52-3.27-3.7-2.63-3.7,2.63,1.52,3.27ZM66,51.78H61.9L58.26,65.65l5.67,5.64,5.67-5.64L66,51.78ZM61.41,26.15h5.05l-1.53-9.74-.55.42a.73.73,0,0,1-.9,0l-.57-.43L62.66,18a.73.73,0,0,1,0,.25l-1.22,7.88Zm7.53,20.06,1.79,1.27L88.66,28l-.2-.57L65.19,43.55l3.74,2.66ZM67.12,33.44l-3.19-1.11-3.22,1.09,3.22,2.5,3.19-2.48Zm8.14-18.92-4.81,5.1,1.24,4.3,5.25-4.25-1.68-5.15ZM31.86,49.1,57.54,67l-.89-.89,3.91-14.89L59,47.91,57.48,49a.72.72,0,0,1-1-.08L38.67,29.53,31.86,49.1Zm27-2.86,3.8-2.7-15.83-11a.72.72,0,0,1-.32-.22L39.41,27.4l-.2.57L57.14,47.48l1.73-1.23Zm-.71-7.59a11.61,11.61,0,0,1,1.7-4.06l-4.06-3.15a10.18,10.18,0,0,1-1.15-.9.72.72,0,0,1-.19-.71l1.14-3.95c-2.92.82-6.23,3-7.61,5.72l10.17,7.06ZM46.8,30.77c1.55-2.92,4.85-5.14,7.95-6.14l-5.17-4.19a13,13,0,0,0-3.76-.12,7.32,7.32,0,0,0-4.56,2l-.11.1L39.9,26l6.89,4.78ZM49.63,19A12.52,12.52,0,0,0,42,20l3.12-9a12.34,12.34,0,0,1,6.65,1.36L49.63,19Zm2.6-8a13.8,13.8,0,0,0-6.59-1.42l1.7-4.89,5.57,4.21-.68,2.1Zm3.95,13,1.24-4.3-4.82-5.11-1.67,5.16,5.25,4.25ZM53.07,13l1.06-3.29L61.6,15.4,61.36,17l-8.19-3.87Z"/><path class="cls-2" d="M13.6,108.74v-19l-4.83,19H7.64l-4.79-19v19H0V83.39H3.88l4.33,17,4.41-17h3.8v25.34Z"/><path class="cls-2" d="M23.1,108.74V83.39h9.42v2.54H26v8.55h6.31V97H26v9.16h6.57v2.55Z"/><path class="cls-2" d="M46.78,108.74,43.47,98.51H41.23v10.22H38.38V83.39H43.7c3.46,0,5.93,2.85,5.93,7.48,0,4.48-1.94,6.42-3.5,7l3.72,10.87ZM46.66,91c0-2.93-1.1-5-3.34-5H41.23V96h2.09C45.56,96,46.66,93.88,46.66,91Z"/><path class="cls-2" d="M65.59,108.74l-5.21-11L58.67,101v7.71H55.82V83.39h2.85V96.58l6.5-13.18H68.4L62,95.44l6.92,13.3Z"/><path class="cls-2" d="M73.61,108.74V83.39h2.85v22.8H83v2.55Z"/><path class="cls-2" d="M88.16,108.74V83.39H91v25.34Z"/><path class="cls-2" d="M96.94,96.08c0-7.22,1.79-13.11,6.61-13.11s6.61,5.89,6.61,13.11-1.82,13.11-6.61,13.11S96.94,103.3,96.94,96.08Zm10.26,0c0-5.74-.95-10.52-3.65-10.52S99.9,90.35,99.9,96.08s.91,10.52,3.65,10.52S107.2,101.74,107.2,96.08Z"/><path class="cls-2" d="M125.13,108.74l-6.19-17.55v17.55h-2.85V83.39h2.85L125,100.6V83.39h2.85v25.34Z"/></svg>