<svg id="_1" data-name="1" xmlns="http://www.w3.org/2000/svg" viewBox="0 0 62 49.6"><defs><style>.cls-1{fill:#232a59;}</style></defs><title>Vector Smart Object1</title><path class="cls-1" d="M55.66,12.35c0,.54,0,1.08,0,1.62a34.41,34.41,0,0,1-.86,7.56C51.6,35.82,39.38,49.6,19.5,49.6A36.46,36.46,0,0,1,0,44a26.32,26.32,0,0,0,3,.18,25.76,25.76,0,0,0,15.8-5.36A12.71,12.71,0,0,1,7,30.09a12.74,12.74,0,0,0,2.39.23,13.14,13.14,0,0,0,3.35-.44,12.7,12.7,0,0,1-9.33-7.74A12.29,12.29,0,0,1,2.5,17.6v-.16A12.84,12.84,0,0,0,8.26,19,12.48,12.48,0,0,1,2.6,8.59,12.33,12.33,0,0,1,4.32,2.29,36.3,36.3,0,0,0,30.54,15.37,12.54,12.54,0,0,1,42.93,0a12.79,12.79,0,0,1,9.28,4,25.67,25.67,0,0,0,8.08-3A12.59,12.59,0,0,1,54.7,7.84a25.66,25.66,0,0,0,7.3-2A25.56,25.56,0,0,1,55.66,12.35Z"/></svg>