<svg width="16" height="16" viewBox="0 0 16 16" version="1.1" xmlns="http://www.w3.org/2000/svg" xmlns:xlink="http://www.w3.org/1999/xlink">
<title>Vector 2</title>
<desc>Created using Figma</desc>
<g id="Canvas" transform="translate(-3427 -605)">
<g id="Vector 2">
<use xlink:href="#path0_stroke" transform="translate(3427.5 605.5)"/>
</g>
</g>
<defs>
<path id="path0_stroke" d="M 0 2L 0 1.5L -0.5 1.5L -0.5 2L 0 2ZM 0 15L -0.5 15L -0.5 15.5L 0 15.5L 0 15ZM 13 15L 13 15.5L 13.5 15.5L 13.5 15L 13 15ZM 15 0L 15.5 0L 15.5 -0.5L 15 -0.5L 15 0ZM 9.5 1.5L 0 1.5L 0 2.5L 9.5 2.5L 9.5 1.5ZM -0.5 2L -0.5 15L 0.5 15L 0.5 2L -0.5 2ZM 0 15.5L 13 15.5L 13 14.5L 0 14.5L 0 15.5ZM 13.5 15L 13.5 5.5L 12.5 5.5L 12.5 15L 13.5 15ZM 6.83081 7.87492L 15.3308 0.374919L 14.6692 -0.374919L 6.16919 7.12508L 6.83081 7.87492ZM 14.5 0L 14.5 4.5L 15.5 4.5L 15.5 0L 14.5 0ZM 15 -0.5L 10.5 -0.5L 10.5 0.5L 15 0.5L 15 -0.5Z"/>
</defs>
</svg>
